<svg id="visual" viewBox="0 0 960 75" width="960" height="75" xmlns="http://www.w3.org/2000/svg" xmlns:xlink="http://www.w3.org/1999/xlink" version="1.1"><rect x="0" y="0" width="960" height="75" fill="#FF0066"></rect><path d="M0 55L26.7 55C53.3 55 106.7 55 160 54.5C213.3 54 266.7 53 320 52C373.3 51 426.7 50 480 51.8C533.3 53.7 586.7 58.3 640 60C693.3 61.7 746.7 60.3 800 57C853.3 53.7 906.7 48.3 933.3 45.7L960 43L960 0L933.3 0C906.7 0 853.3 0 800 0C746.7 0 693.3 0 640 0C586.7 0 533.3 0 480 0C426.7 0 373.3 0 320 0C266.7 0 213.3 0 160 0C106.7 0 53.3 0 26.7 0L0 0Z" fill="#bd2b84"></path><path d="M0 49L26.7 47.5C53.3 46 106.7 43 160 40.5C213.3 38 266.7 36 320 35.5C373.3 35 426.7 36 480 36C533.3 36 586.7 35 640 35.3C693.3 35.7 746.7 37.3 800 37.2C853.3 37 906.7 35 933.3 34L960 33L960 0L933.3 0C906.7 0 853.3 0 800 0C746.7 0 693.3 0 640 0C586.7 0 533.3 0 480 0C426.7 0 373.3 0 320 0C266.7 0 213.3 0 160 0C106.7 0 53.3 0 26.7 0L0 0Z" fill="#853a85"></path><path d="M0 26L26.7 28.3C53.3 30.7 106.7 35.3 160 37.2C213.3 39 266.7 38 320 35.7C373.3 33.3 426.7 29.7 480 28.8C533.3 28 586.7 30 640 32.2C693.3 34.3 746.7 36.7 800 37C853.3 37.3 906.7 35.7 933.3 34.8L960 34L960 0L933.3 0C906.7 0 853.3 0 800 0C746.7 0 693.3 0 640 0C586.7 0 533.3 0 480 0C426.7 0 373.3 0 320 0C266.7 0 213.3 0 160 0C106.7 0 53.3 0 26.7 0L0 0Z" fill="#513c74"></path><path d="M0 16L26.7 18C53.3 20 106.7 24 160 23.8C213.3 23.7 266.7 19.3 320 18.5C373.3 17.7 426.7 20.3 480 22.5C533.3 24.7 586.7 26.3 640 26.2C693.3 26 746.7 24 800 22C853.3 20 906.7 18 933.3 17L960 16L960 0L933.3 0C906.7 0 853.3 0 800 0C746.7 0 693.3 0 640 0C586.7 0 533.3 0 480 0C426.7 0 373.3 0 320 0C266.7 0 213.3 0 160 0C106.7 0 53.3 0 26.7 0L0 0Z" fill="#2d3455"></path><path d="M0 16L26.7 15.8C53.3 15.7 106.7 15.3 160 13.8C213.3 12.3 266.7 9.7 320 9C373.3 8.3 426.7 9.7 480 11.3C533.3 13 586.7 15 640 15.7C693.3 16.3 746.7 15.7 800 15.3C853.3 15 906.7 15 933.3 15L960 15L960 0L933.3 0C906.7 0 853.3 0 800 0C746.7 0 693.3 0 640 0C586.7 0 533.3 0 480 0C426.7 0 373.3 0 320 0C266.7 0 213.3 0 160 0C106.7 0 53.3 0 26.7 0L0 0Z" fill="#202731"></path></svg>