<svg id="visual" viewBox="0 0 960 150" width="960" height="150" xmlns="http://www.w3.org/2000/svg" xmlns:xlink="http://www.w3.org/1999/xlink" version="1.1"><rect x="0" y="0" width="960" height="150" fill="#001220"></rect><path d="M0 124L26.7 118.2C53.3 112.3 106.7 100.7 160 95.2C213.3 89.7 266.7 90.3 320 95.5C373.3 100.7 426.7 110.3 480 111.8C533.3 113.3 586.7 106.7 640 103.7C693.3 100.7 746.7 101.3 800 104.2C853.3 107 906.7 112 933.3 114.5L960 117L960 0L933.3 0C906.7 0 853.3 0 800 0C746.7 0 693.3 0 640 0C586.7 0 533.3 0 480 0C426.7 0 373.3 0 320 0C266.7 0 213.3 0 160 0C106.7 0 53.3 0 26.7 0L0 0Z" fill="#fa7268"></path><path d="M0 103L26.7 97.8C53.3 92.7 106.7 82.3 160 77.5C213.3 72.7 266.7 73.3 320 76.3C373.3 79.3 426.7 84.7 480 88.5C533.3 92.3 586.7 94.7 640 91C693.3 87.3 746.7 77.7 800 75.3C853.3 73 906.7 78 933.3 80.5L960 83L960 0L933.3 0C906.7 0 853.3 0 800 0C746.7 0 693.3 0 640 0C586.7 0 533.3 0 480 0C426.7 0 373.3 0 320 0C266.7 0 213.3 0 160 0C106.7 0 53.3 0 26.7 0L0 0Z" fill="#ef5f67"></path><path d="M0 59L26.7 57.2C53.3 55.3 106.7 51.7 160 52C213.3 52.3 266.7 56.7 320 60.7C373.3 64.7 426.7 68.3 480 71.7C533.3 75 586.7 78 640 73.8C693.3 69.7 746.7 58.3 800 56C853.3 53.7 906.7 60.3 933.3 63.7L960 67L960 0L933.3 0C906.7 0 853.3 0 800 0C746.7 0 693.3 0 640 0C586.7 0 533.3 0 480 0C426.7 0 373.3 0 320 0C266.7 0 213.3 0 160 0C106.7 0 53.3 0 26.7 0L0 0Z" fill="#e34c67"></path><path d="M0 52L26.7 51.8C53.3 51.7 106.7 51.3 160 52.2C213.3 53 266.7 55 320 53.2C373.3 51.3 426.7 45.7 480 45.7C533.3 45.7 586.7 51.3 640 52.5C693.3 53.7 746.7 50.3 800 49.8C853.3 49.3 906.7 51.7 933.3 52.8L960 54L960 0L933.3 0C906.7 0 853.3 0 800 0C746.7 0 693.3 0 640 0C586.7 0 533.3 0 480 0C426.7 0 373.3 0 320 0C266.7 0 213.3 0 160 0C106.7 0 53.3 0 26.7 0L0 0Z" fill="#d53867"></path><path d="M0 14L26.7 16.8C53.3 19.7 106.7 25.3 160 25C213.3 24.7 266.7 18.3 320 18.2C373.3 18 426.7 24 480 25C533.3 26 586.7 22 640 21.7C693.3 21.3 746.7 24.7 800 25.7C853.3 26.7 906.7 25.3 933.3 24.7L960 24L960 0L933.3 0C906.7 0 853.3 0 800 0C746.7 0 693.3 0 640 0C586.7 0 533.3 0 480 0C426.7 0 373.3 0 320 0C266.7 0 213.3 0 160 0C106.7 0 53.3 0 26.7 0L0 0Z" fill="#c62368"></path></svg>