<svg id="visual" viewBox="0 0 960 300" width="960" height="300" xmlns="http://www.w3.org/2000/svg" xmlns:xlink="http://www.w3.org/1999/xlink" version="1.1"><path d="M0 95L26.7 98C53.3 101 106.7 107 160 105.5C213.3 104 266.7 95 320 95.5C373.3 96 426.7 106 480 109C533.3 112 586.7 108 640 107.5C693.3 107 746.7 110 800 108.7C853.3 107.3 906.7 101.7 933.3 98.8L960 96L960 0L933.3 0C906.7 0 853.3 0 800 0C746.7 0 693.3 0 640 0C586.7 0 533.3 0 480 0C426.7 0 373.3 0 320 0C266.7 0 213.3 0 160 0C106.7 0 53.3 0 26.7 0L0 0Z" fill="#fa7268"></path><path d="M0 84L26.7 80.7C53.3 77.3 106.7 70.7 160 67.5C213.3 64.3 266.7 64.7 320 65C373.3 65.3 426.7 65.7 480 69.7C533.3 73.7 586.7 81.3 640 86C693.3 90.7 746.7 92.3 800 89.3C853.3 86.3 906.7 78.7 933.3 74.8L960 71L960 0L933.3 0C906.7 0 853.3 0 800 0C746.7 0 693.3 0 640 0C586.7 0 533.3 0 480 0C426.7 0 373.3 0 320 0C266.7 0 213.3 0 160 0C106.7 0 53.3 0 26.7 0L0 0Z" fill="#ef5f67"></path><path d="M0 75L26.7 71.5C53.3 68 106.7 61 160 58.3C213.3 55.7 266.7 57.3 320 57.2C373.3 57 426.7 55 480 53.7C533.3 52.3 586.7 51.7 640 56.2C693.3 60.7 746.7 70.3 800 73.7C853.3 77 906.7 74 933.3 72.5L960 71L960 0L933.3 0C906.7 0 853.3 0 800 0C746.7 0 693.3 0 640 0C586.7 0 533.3 0 480 0C426.7 0 373.3 0 320 0C266.7 0 213.3 0 160 0C106.7 0 53.3 0 26.7 0L0 0Z" fill="#e34c67"></path><path d="M0 38L26.7 36.8C53.3 35.7 106.7 33.3 160 34.8C213.3 36.3 266.7 41.7 320 45C373.3 48.3 426.7 49.7 480 47.2C533.3 44.7 586.7 38.3 640 35C693.3 31.7 746.7 31.3 800 33.7C853.3 36 906.7 41 933.3 43.5L960 46L960 0L933.3 0C906.7 0 853.3 0 800 0C746.7 0 693.3 0 640 0C586.7 0 533.3 0 480 0C426.7 0 373.3 0 320 0C266.7 0 213.3 0 160 0C106.7 0 53.3 0 26.7 0L0 0Z" fill="#d53867"></path><path d="M0 31L26.7 30.2C53.3 29.3 106.7 27.7 160 26C213.3 24.3 266.7 22.7 320 23.7C373.3 24.7 426.7 28.3 480 27.7C533.3 27 586.7 22 640 19.3C693.3 16.7 746.7 16.3 800 16.8C853.3 17.3 906.7 18.7 933.3 19.3L960 20L960 0L933.3 0C906.7 0 853.3 0 800 0C746.7 0 693.3 0 640 0C586.7 0 533.3 0 480 0C426.7 0 373.3 0 320 0C266.7 0 213.3 0 160 0C106.7 0 53.3 0 26.7 0L0 0Z" fill="#c62368"></path></svg>