<svg id="visual" viewBox="0 0 960 150" width="960" height="150" xmlns="http://www.w3.org/2000/svg" xmlns:xlink="http://www.w3.org/1999/xlink" version="1.1"><rect x="0" y="0" width="960" height="150" fill="#FF0066"></rect><path d="M0 91L26.7 94.7C53.3 98.3 106.7 105.7 160 111.2C213.3 116.7 266.7 120.3 320 122.2C373.3 124 426.7 124 480 122.5C533.3 121 586.7 118 640 112C693.3 106 746.7 97 800 97.7C853.3 98.3 906.7 108.7 933.3 113.8L960 119L960 0L933.3 0C906.7 0 853.3 0 800 0C746.7 0 693.3 0 640 0C586.7 0 533.3 0 480 0C426.7 0 373.3 0 320 0C266.7 0 213.3 0 160 0C106.7 0 53.3 0 26.7 0L0 0Z" fill="#bd2b84"></path><path d="M0 101L26.7 95.8C53.3 90.7 106.7 80.3 160 78.5C213.3 76.7 266.7 83.3 320 84.8C373.3 86.3 426.7 82.7 480 82.8C533.3 83 586.7 87 640 88.5C693.3 90 746.7 89 800 85C853.3 81 906.7 74 933.3 70.5L960 67L960 0L933.3 0C906.7 0 853.3 0 800 0C746.7 0 693.3 0 640 0C586.7 0 533.3 0 480 0C426.7 0 373.3 0 320 0C266.7 0 213.3 0 160 0C106.7 0 53.3 0 26.7 0L0 0Z" fill="#853a85"></path><path d="M0 74L26.7 73C53.3 72 106.7 70 160 66.2C213.3 62.3 266.7 56.7 320 55.7C373.3 54.7 426.7 58.3 480 63C533.3 67.7 586.7 73.3 640 71.8C693.3 70.3 746.7 61.7 800 57.8C853.3 54 906.7 55 933.3 55.5L960 56L960 0L933.3 0C906.7 0 853.3 0 800 0C746.7 0 693.3 0 640 0C586.7 0 533.3 0 480 0C426.7 0 373.3 0 320 0C266.7 0 213.3 0 160 0C106.7 0 53.3 0 26.7 0L0 0Z" fill="#513c74"></path><path d="M0 31L26.7 31.2C53.3 31.3 106.7 31.7 160 31.5C213.3 31.3 266.7 30.7 320 34.5C373.3 38.3 426.7 46.7 480 49.3C533.3 52 586.7 49 640 49.7C693.3 50.3 746.7 54.7 800 56.8C853.3 59 906.7 59 933.3 59L960 59L960 0L933.3 0C906.7 0 853.3 0 800 0C746.7 0 693.3 0 640 0C586.7 0 533.3 0 480 0C426.7 0 373.3 0 320 0C266.7 0 213.3 0 160 0C106.7 0 53.3 0 26.7 0L0 0Z" fill="#2d3455"></path><path d="M0 13L26.7 12.8C53.3 12.7 106.7 12.3 160 13C213.3 13.7 266.7 15.3 320 16.8C373.3 18.3 426.7 19.7 480 22.3C533.3 25 586.7 29 640 31.5C693.3 34 746.7 35 800 35.5C853.3 36 906.7 36 933.3 36L960 36L960 0L933.3 0C906.7 0 853.3 0 800 0C746.7 0 693.3 0 640 0C586.7 0 533.3 0 480 0C426.7 0 373.3 0 320 0C266.7 0 213.3 0 160 0C106.7 0 53.3 0 26.7 0L0 0Z" fill="#202731"></path></svg>